<svg width="256" height="101" viewBox="0 0 256 101" fill="none" xmlns="http://www.w3.org/2000/svg">
<path d="M6.64 100.624C6.64 100.624 6.512 100.539 6.256 100.368C6 100.283 5.65867 100.197 5.232 100.112C4.89067 100.027 4.464 99.984 3.952 99.984C2.58667 99.6427 1.60533 98.8747 1.008 97.68C0.410667 96.5707 0.282667 95.3333 0.624001 93.968C0.965334 93.6267 1.22133 92.9013 1.392 91.792C1.56267 90.6827 1.648 89.7867 1.648 89.104C1.98933 88.4213 2.20267 87.952 2.288 87.696C2.37333 87.3547 2.58667 86.5013 2.928 85.136C3.184 83.6853 3.61067 81.68 4.208 79.12C4.89067 76.4747 5.616 73.6587 6.384 70.672C7.23733 67.6853 8.048 64.8267 8.816 62.096C9.584 59.3653 10.2667 57.0613 10.864 55.184C11.5467 53.3067 12.016 52.24 12.272 51.984C12.272 51.984 12.272 51.856 12.272 51.6C12.272 51.2587 12.272 50.9173 12.272 50.576C12.272 50.576 12.3147 50.192 12.4 49.424C12.5707 48.5707 12.9973 47.632 13.68 46.608C14.0213 45.6693 14.32 44.6453 14.576 43.536C14.832 42.4267 14.96 41.7013 14.96 41.36C15.3013 40.9333 15.7707 39.9093 16.368 38.288C17.0507 36.5813 17.6907 34.9173 18.288 33.296C18.8 31.9307 19.3547 30.48 19.952 28.944C20.6347 27.408 21.1893 26.0853 21.616 24.976C22.128 23.8667 22.384 23.312 22.384 23.312C22.384 22.9707 22.384 22.8 22.384 22.8C22.384 22.7147 22.384 22.672 22.384 22.672C22.7253 22.3307 23.536 20.624 24.816 17.552C26.1813 14.3947 28.016 10.3413 30.32 5.392C30.6613 4.70933 31.088 3.94133 31.6 3.088C32.112 2.23466 32.368 1.63733 32.368 1.296C32.7947 0.61333 33.392 0.314662 34.16 0.399994C34.928 0.399994 35.696 0.655996 36.464 1.168C37.3173 1.68 37.9573 2.40533 38.384 3.34399L39.664 5.392L35.056 14.608C33.6907 16.9973 32.5387 19.1733 31.6 21.136C30.7467 23.0987 30.32 24.2507 30.32 24.592C30.32 24.592 30.064 25.2747 29.552 26.64C29.04 28.0053 28.4427 29.6267 27.76 31.504C27.0773 33.3813 26.48 35.088 25.968 36.624C25.0293 39.2693 24.1333 41.4453 23.28 43.152C22.512 44.8587 22.128 45.8827 22.128 46.224C22.128 46.0533 23.0667 45.9253 24.944 45.84C26.8213 45.7547 29.2107 45.712 32.112 45.712C35.0133 45.712 37.9573 45.712 40.944 45.712C44.016 45.6267 46.704 45.584 49.008 45.584C51.3973 45.4987 53.0187 45.3707 53.872 45.2L60.528 44.56L64.88 31.376C65.5627 28.9867 66.4587 26.0853 67.568 22.672C68.6773 19.2587 69.6587 16.3573 70.512 13.968C71.8773 10.0427 72.944 7.61066 73.712 6.672C74.48 5.73333 75.376 5.26399 76.4 5.26399C76.656 5.26399 76.9973 5.34933 77.424 5.52C77.936 5.60533 78.4053 5.81866 78.832 6.16C79.344 6.416 79.6853 6.8 79.856 7.312C80.88 8.25066 81.3493 9.31733 81.264 10.512C81.264 11.7067 80.5813 13.2853 79.216 15.248C77.8507 17.552 76.6987 20.0693 75.76 22.8C74.9067 25.4453 74.1387 27.6213 73.456 29.328C73.456 30.352 73.328 31.2053 73.072 31.888C72.816 32.4853 72.5173 32.9547 72.176 33.296C72.0053 33.4667 71.664 34.1067 71.152 35.216C70.64 36.3253 70.1707 37.4347 69.744 38.544C69.3173 39.6533 69.104 40.336 69.104 40.592C69.104 41.1893 68.976 41.9147 68.72 42.768C68.464 43.6213 68.1653 44.2187 67.824 44.56C67.6533 45.072 67.2693 46.352 66.672 48.4C66.0747 50.448 65.392 52.88 64.624 55.696C63.856 58.4267 63.0453 61.1147 62.192 63.76C61.3387 66.32 60.5707 68.4533 59.888 70.16C59.888 70.7573 59.6747 71.5253 59.248 72.464C58.8213 73.3173 58.608 74.0853 58.608 74.768C58.2667 75.792 57.84 77.072 57.328 78.608C56.816 80.144 56.56 81.1253 56.56 81.552C56.1333 83.5147 55.664 85.52 55.152 87.568C54.7253 89.616 54.3413 91.3653 54 92.816C53.744 94.352 53.616 95.248 53.616 95.504C53.2747 95.8453 52.7627 95.888 52.08 95.632C51.3973 95.376 50.5867 95.0773 49.648 94.736C48.0267 93.7973 47.0453 92.7733 46.704 91.664C46.448 90.64 46.7893 89.1467 47.728 87.184C48.1547 86.5013 48.6667 84.8373 49.264 82.192C49.9467 79.4613 50.6293 76.7733 51.312 74.128C51.824 72.848 52.3787 71.1413 52.976 69.008C53.5733 66.7893 54.1707 64.5707 54.768 62.352C55.3653 60.048 55.8773 58.128 56.304 56.592C56.7307 54.9707 57.0293 54.0747 57.2 53.904C57.2 53.5627 57.2 53.264 57.2 53.008C57.2 52.752 57.2 52.624 57.2 52.624C57.0293 52.4533 55.9627 52.3253 54 52.24C52.0373 52.0693 49.6053 52.0267 46.704 52.112C43.8027 52.112 40.7733 52.1973 37.616 52.368C34.544 52.4533 31.7707 52.6667 29.296 53.008C28.3573 53.008 27.2907 53.008 26.096 53.008C24.9013 53.008 23.9627 53.008 23.28 53.008C22.3413 53.008 21.5307 53.008 20.848 53.008C20.2507 53.008 19.952 53.008 19.952 53.008C19.8667 53.264 19.568 54.16 19.056 55.696C18.544 57.232 17.9467 59.1093 17.264 61.328C16.5813 63.4613 15.856 65.68 15.088 67.984C14.4053 70.2027 13.808 72.2507 13.296 74.128C12.8693 75.92 12.5707 77.2 12.4 77.968C12.0587 79.504 11.5893 81.424 10.992 83.728C10.48 86.032 9.88267 88.3787 9.2 90.768C8.60267 93.2427 8.048 95.376 7.536 97.168C7.10933 98.96 6.81067 100.112 6.64 100.624ZM91.053 85.52C89.261 87.056 87.1703 87.952 84.781 88.208C82.477 88.464 80.2157 88.1227 77.997 87.184C75.7783 86.16 73.9437 84.624 72.493 82.576C71.0423 80.6987 70.1037 78.5653 69.677 76.176C69.2503 73.7013 69.2077 70.5013 69.549 66.576C69.805 63.248 70.8717 59.92 72.749 56.592C74.6263 53.1787 76.8877 50.1493 79.533 47.504C82.2637 44.8587 84.9517 43.024 87.597 42C88.877 41.1467 89.9437 40.7627 90.797 40.848C91.7357 40.848 93.1437 40.9333 95.021 41.104C96.9837 41.36 98.4343 41.744 99.373 42.256C100.397 42.768 101.208 43.4507 101.805 44.304C103.085 45.584 103.938 46.864 104.365 48.144C104.792 49.3387 105.005 50.5333 105.005 51.728C104.664 53.6053 103.384 55.9093 101.165 58.64C99.0317 61.2853 96.2157 63.4613 92.717 65.168C90.8397 65.7653 88.7917 66.0213 86.573 65.936C84.3543 65.8507 82.5197 65.296 81.069 64.272C79.4477 63.5893 78.381 63.7173 77.869 64.656C77.357 65.5093 76.8877 67.6427 76.461 71.056C76.1197 74.2987 76.3757 76.688 77.229 78.224C78.0823 79.6747 79.2343 80.528 80.685 80.784C82.3917 81.1253 83.7143 81.3813 84.653 81.552C85.677 81.6373 86.9143 81.2533 88.365 80.4C89.7303 79.5467 90.5837 79.0773 90.925 78.992C91.2663 78.8213 91.5223 78.6507 91.693 78.48C91.949 78.224 92.5037 77.6693 93.357 76.816C93.9543 76.2187 94.4237 75.792 94.765 75.536C95.1063 75.1947 95.4903 75.024 95.917 75.024C96.3437 75.024 96.7277 75.2373 97.069 75.664C97.4103 76.0053 97.7517 76.2613 98.093 76.432C98.9463 76.432 99.117 76.944 98.605 77.968C98.1783 78.992 97.2823 80.2293 95.917 81.68C94.5517 83.0453 92.9303 84.3253 91.053 85.52ZM90.925 58.384C91.8637 57.9573 92.845 57.36 93.869 56.592C94.893 55.7387 95.7463 54.8427 96.429 53.904C97.197 52.88 97.581 52.0267 97.581 51.344C97.581 50.1493 97.0263 49.168 95.917 48.4C94.8077 47.5467 93.1437 47.4187 90.925 48.016C89.9863 48.272 88.9197 48.912 87.725 49.936C86.5303 50.8747 85.3783 51.9413 84.269 53.136C83.245 54.3307 82.3917 55.3973 81.709 56.336C81.1117 57.2747 80.8983 57.8293 81.069 58C81.325 58.4267 82.0503 58.768 83.245 59.024C84.4397 59.1947 85.7623 59.2373 87.213 59.152C88.749 59.0667 89.9863 58.8107 90.925 58.384ZM108.84 90C107.219 90.4267 105.896 90.0853 104.872 88.976C103.933 87.8667 103.379 86.16 103.208 83.856C103.037 81.552 103.293 78.8213 103.976 75.664C104.403 74.64 104.744 73.6587 105 72.72C105.256 71.696 105.384 70.8853 105.384 70.288C105.555 69.4347 105.896 68.1973 106.408 66.576C106.92 64.8693 107.475 63.12 108.072 61.328C108.669 59.536 109.224 57.9573 109.736 56.592C110.333 55.1413 110.717 54.2453 110.888 53.904C111.229 53.904 111.528 53.6053 111.784 53.008C112.04 52.4107 112.168 51.8133 112.168 51.216C112.168 50.5333 112.296 49.7653 112.552 48.912C112.893 48.0587 113.235 47.4613 113.576 47.12C113.576 46.6933 113.661 46.224 113.832 45.712C114.088 45.1147 114.216 44.6453 114.216 44.304C114.216 43.9627 114.301 43.6213 114.472 43.28C114.728 42.9387 114.856 42.5973 114.856 42.256C115.453 41.1467 116.221 39.3973 117.16 37.008C118.184 34.5333 119.251 31.8027 120.36 28.816C121.555 25.8293 122.664 22.8853 123.688 19.984C124.712 17.0827 125.523 14.6507 126.12 12.688C126.803 10.64 127.144 9.40266 127.144 8.976C127.144 8.29333 127.315 7.78133 127.656 7.43999C127.997 7.09866 128.509 6.92799 129.192 6.92799C129.448 6.672 129.747 6.50133 130.088 6.41599C130.515 6.33066 130.899 6.28799 131.24 6.28799C131.24 6.28799 131.411 6.45866 131.752 6.8C132.093 7.14133 132.605 7.65333 133.288 8.336C133.971 8.93333 134.355 9.61599 134.44 10.384C134.611 11.152 134.696 12.048 134.696 13.072C134.696 14.1813 134.568 15.1627 134.312 16.016C134.056 16.8693 133.544 18.1067 132.776 19.728C132.008 21.3493 130.813 23.8667 129.192 27.28C128.509 28.9867 127.784 30.608 127.016 32.144C126.248 33.5947 125.864 34.4907 125.864 34.832C125.864 35.1733 125.693 35.6853 125.352 36.368C125.096 37.0507 124.797 37.904 124.456 38.928C124.115 39.6107 123.645 40.6347 123.048 42C122.451 43.28 121.811 44.688 121.128 46.224C120.531 47.6747 120.019 48.9547 119.592 50.064C119.165 51.088 118.952 51.6853 118.952 51.856C118.952 52.1973 118.909 52.5387 118.824 52.88C118.824 53.2213 118.653 53.5627 118.312 53.904C117.971 53.904 117.757 54.16 117.672 54.672C117.672 55.0987 117.672 55.312 117.672 55.312C117.672 56.1653 116.989 58.4267 115.624 62.096C114.259 66.7893 112.979 71.0987 111.784 75.024C110.675 78.9493 110.12 82.1067 110.12 84.496C110.12 86.544 110.077 87.9093 109.992 88.592C109.907 89.1893 109.523 89.6587 108.84 90ZM132.513 90.384C128.758 90.384 125.686 88.976 123.297 86.16C120.908 83.2587 119.756 79.6747 119.841 75.408C120.012 72.336 120.609 69.0507 121.633 65.552C122.742 61.968 124.193 58.5547 125.985 55.312C127.777 51.984 129.74 49.0827 131.873 46.608C134.006 44.1333 136.225 42.384 138.529 41.36C139.382 40.9333 140.278 40.592 141.217 40.336C142.241 40.08 143.265 39.952 144.289 39.952C145.228 39.952 146.209 40.1227 147.233 40.464C148.257 40.72 149.11 41.0187 149.793 41.36C151.244 41.9573 152.353 42.6827 153.121 43.536C153.889 44.3893 154.572 45.712 155.169 47.504C155.425 49.1253 155.553 50.2773 155.553 50.96C155.553 51.6427 155.34 52.6667 154.913 54.032C153.889 57.104 152.566 59.7493 150.945 61.968C149.324 64.1867 147.148 66.064 144.417 67.6C143.734 68.0267 142.924 68.368 141.985 68.624C141.132 68.7947 140.236 68.88 139.297 68.88C137.59 68.88 135.926 68.5813 134.305 67.984C132.769 67.3013 131.532 66.32 130.593 65.04L129.697 64.016L129.313 65.04C128.46 67.344 127.777 69.4773 127.265 71.44C126.838 73.4027 126.625 75.1947 126.625 76.816C126.625 77.84 126.71 78.8213 126.881 79.76C127.137 80.6987 127.478 81.5093 127.905 82.192C128.246 82.704 128.801 83.088 129.569 83.344C130.422 83.5147 131.318 83.6 132.257 83.6C132.854 83.6 133.452 83.6 134.049 83.6C134.732 83.5147 135.372 83.344 135.969 83.088C137.42 82.576 138.572 82.0213 139.425 81.424C140.364 80.8267 141.302 80.1867 142.241 79.504L142.753 79.248H142.625C143.649 78.736 144.545 78.224 145.313 77.712C146.166 77.2 146.593 76.944 146.593 76.944C146.934 76.944 147.276 76.7307 147.617 76.304C148.3 75.9627 149.153 76.0907 150.177 76.688C151.286 77.2853 151.841 78.0533 151.841 78.992C151.756 79.4187 151.372 80.1013 150.689 81.04C150.006 81.8933 149.238 82.704 148.385 83.472C147.617 84.24 146.977 84.6667 146.465 84.752C146.38 84.8373 146.081 85.008 145.569 85.264C145.057 85.4347 144.716 85.6053 144.545 85.776H144.673C143.905 86.8 143.137 87.312 142.369 87.312H141.345C141.004 87.9093 139.894 88.592 138.017 89.36C136.14 90.0427 134.305 90.384 132.513 90.384ZM138.273 62.224C139.809 62.224 141.132 61.7973 142.241 60.944C143.436 60.0053 144.46 58.9813 145.313 57.872C147.02 55.568 148.001 53.3493 148.257 51.216C148.598 48.9973 148.342 47.4613 147.489 46.608C146.977 46.352 146.508 46.224 146.081 46.224C145.74 46.1387 145.014 46.2667 143.905 46.608C143.137 46.7787 142.07 47.4187 140.705 48.528C139.34 49.6373 137.974 50.8747 136.609 52.24C135.329 53.6053 134.348 54.7573 133.665 55.696L132.001 58.384C132.684 58.128 133.324 58 133.921 58C134.604 57.9147 134.988 57.9573 135.073 58.128C135.073 58.896 135.201 59.6213 135.457 60.304C135.798 60.9013 136.182 61.3707 136.609 61.712C137.121 62.0533 137.676 62.224 138.273 62.224ZM195.13 88.464C194.277 88.464 193.381 87.9947 192.442 87.056C191.589 86.1173 190.821 84.9653 190.138 83.6C189.541 82.1493 189.242 80.784 189.242 79.504C189.242 78.224 189.541 75.8347 190.138 72.336C190.821 68.8373 191.631 65.296 192.57 61.712C193.253 59.4933 193.466 58.2133 193.21 57.872C192.954 57.5307 191.802 58 189.754 59.28C188.559 59.8773 187.493 60.5173 186.554 61.2C185.615 61.7973 184.805 62.48 184.122 63.248C183.695 63.5893 183.055 64.144 182.202 64.912C181.349 65.68 180.453 66.4053 179.514 67.088C178.405 67.9413 176.997 69.136 175.29 70.672C173.583 72.208 171.877 73.744 170.17 75.28C168.549 76.816 167.311 78.0107 166.458 78.864C166.287 79.2053 166.031 79.504 165.69 79.76C165.349 80.016 164.965 80.1867 164.538 80.272C164.111 80.272 163.642 80.1867 163.13 80.016C162.191 79.76 161.295 79.2053 160.442 78.352C159.674 77.4987 159.29 76.5173 159.29 75.408C159.29 74.5547 159.631 73.104 160.314 71.056C160.997 68.9227 161.893 66.3627 163.002 63.376C164.197 60.3893 165.562 57.232 167.098 53.904C167.354 53.4773 167.567 52.9653 167.738 52.368C167.909 51.6853 168.037 50.96 168.122 50.192C168.293 49.424 168.378 48.6987 168.378 48.016C168.378 47.5893 168.421 47.1627 168.506 46.736C168.677 46.224 168.847 45.7547 169.018 45.328C169.274 44.816 169.487 44.4747 169.658 44.304C169.999 43.6213 170.597 43.4507 171.45 43.792C172.303 44.048 173.029 44.6453 173.626 45.584C174.906 46.7787 175.546 48.272 175.546 50.064C175.631 51.856 175.205 54.0747 174.266 56.72C173.925 57.3173 173.626 57.9147 173.37 58.512C173.199 59.024 173.029 59.4933 172.858 59.92C172.687 60.2613 172.559 60.56 172.474 60.816C172.389 60.9867 172.346 61.072 172.346 61.072C172.687 61.072 173.455 60.688 174.65 59.92C175.845 59.152 177.253 58.2987 178.874 57.36C180.154 56.4213 181.263 55.568 182.202 54.8C183.226 53.9467 184.079 53.3067 184.762 52.88C185.445 52.368 185.871 52.112 186.042 52.112C186.383 52.112 186.81 51.984 187.322 51.728C187.834 51.472 188.261 51.1733 188.602 50.832C188.943 50.4907 189.199 50.32 189.37 50.32C189.626 50.2347 189.754 50.192 189.754 50.192C189.754 50.192 189.925 50.192 190.266 50.192C190.607 50.1067 190.949 49.8933 191.29 49.552C191.973 49.04 192.869 48.912 193.978 49.168C195.087 49.3387 196.111 49.7653 197.05 50.448C197.989 51.1307 198.458 51.8987 198.458 52.752C198.458 53.0933 198.543 53.392 198.714 53.648C198.97 53.8187 199.098 53.904 199.098 53.904C199.781 53.904 200.207 54.9707 200.378 57.104C200.634 59.2373 200.421 61.2853 199.738 63.248C199.738 64.528 199.482 66.064 198.97 67.856C198.543 69.648 198.159 71.3547 197.818 72.976C197.135 75.1093 196.666 76.9867 196.41 78.608C196.154 80.2293 196.111 81.5947 196.282 82.704C196.453 83.8133 196.751 84.7093 197.178 85.392C197.519 85.9893 197.519 86.672 197.178 87.44C196.837 88.1227 196.154 88.464 195.13 88.464ZM214.611 85.776C213.587 85.9467 212.478 85.776 211.283 85.264C210.088 84.752 209.022 84.0267 208.083 83.088C207.23 82.1493 206.675 81.168 206.419 80.144C206.078 78.352 206.291 76.1333 207.059 73.488C207.912 70.7573 209.107 67.8987 210.643 64.912C212.264 61.84 214.056 58.896 216.019 56.08C218.067 53.264 220.158 50.832 222.291 48.784C224.51 46.6507 226.558 45.2 228.435 44.432C229.374 43.8347 230.099 43.4507 230.611 43.28C231.208 43.024 231.806 42.9813 232.403 43.152C233.086 43.3227 234.067 43.7493 235.347 44.432C236.542 44.7733 237.438 45.1573 238.035 45.584C238.632 46.0107 239.4 46.864 240.339 48.144C241.022 49.424 241.534 50.704 241.875 51.984C242.216 53.264 242.515 54.7147 242.771 56.336C243.454 58.4693 243.71 59.8773 243.539 60.56C243.368 61.1573 243.112 61.6267 242.771 61.968C242.088 62.8213 241.918 63.248 242.259 63.248C242.259 63.248 242.216 63.4187 242.131 63.76C242.131 64.016 241.96 64.4427 241.619 65.04C241.022 66.9173 240.552 68.88 240.211 70.928C239.955 72.8907 239.998 74.512 240.339 75.792C241.022 77.6693 242.259 78.7787 244.051 79.12C245.843 79.4613 247.678 78.6933 249.555 76.816C250.494 76.1333 251.39 75.536 252.243 75.024C253.096 74.4267 253.523 74.4693 253.523 75.152C253.523 75.152 253.651 75.28 253.907 75.536C254.163 75.7067 254.462 75.792 254.803 75.792C255.23 75.792 255.486 75.9627 255.571 76.304C255.742 76.6453 255.742 77.1147 255.571 77.712C255.486 78.224 255.23 78.8213 254.803 79.504C253.523 80.784 252.883 81.6373 252.883 82.064C252.883 82.064 252.712 82.2347 252.371 82.576C252.115 82.832 251.646 83.2587 250.963 83.856C249.427 84.7947 247.464 85.264 245.075 85.264C242.771 85.264 240.979 84.7947 239.699 83.856C238.419 82.9173 237.224 81.6373 236.115 80.016C235.091 78.3947 234.408 76.9867 234.067 75.792L233.427 74.512L229.715 76.944C228.776 77.8827 227.752 78.7787 226.643 79.632C225.619 80.4853 224.936 81.0827 224.595 81.424C224.339 81.7653 224.04 82.064 223.699 82.32C223.443 82.576 223.144 82.704 222.803 82.704C222.462 82.704 222.163 82.704 221.907 82.704C221.651 82.704 221.523 82.704 221.523 82.704C221.523 83.0453 221.096 83.472 220.243 83.984C219.475 84.496 218.536 84.9227 217.427 85.264C216.403 85.6053 215.464 85.776 214.611 85.776ZM213.331 78.864C213.843 78.864 214.739 78.48 216.019 77.712C217.384 76.8587 218.878 75.8773 220.499 74.768C222.206 73.6587 223.699 72.5493 224.979 71.44C226.344 70.3307 227.283 69.4773 227.795 68.88C228.136 68.5387 228.691 67.984 229.459 67.216C230.227 66.3627 230.91 65.6373 231.507 65.04C233.47 62.8213 234.835 60.3893 235.603 57.744C236.371 55.0133 236.286 52.88 235.347 51.344C235.006 50.4053 234.579 49.8933 234.067 49.808C233.555 49.7227 232.488 50.0213 230.867 50.704C229.843 51.3013 228.563 52.4533 227.027 54.16C225.576 55.7813 223.998 57.7013 222.291 59.92C220.67 62.0533 219.134 64.272 217.683 66.576C216.232 68.88 215.038 71.0133 214.099 72.976C213.16 74.9387 212.691 76.4747 212.691 77.584C212.691 77.9253 212.776 78.224 212.947 78.48C213.203 78.736 213.331 78.864 213.331 78.864Z" fill="#208C81"/>
</svg>
